<?xml version="1.0" standalone="no"?>
<!DOCTYPE svg PUBLIC "-//W3C//DTD SVG 1.1//EN" "http://www.w3.org/Graphics/SVG/1.1/DTD/svg11.dtd" >
<svg xmlns="http://www.w3.org/2000/svg" xmlns:xlink="http://www.w3.org/1999/xlink" version="1.1">
<metadata></metadata>
<defs>
<font id="gill_sansregular" horiz-adv-x="1024" >
<font-face units-per-em="2048" ascent="1638" descent="-410" />
<missing-glyph horiz-adv-x="569" />
<glyph horiz-adv-x="0" />
<glyph unicode="&#xd;" horiz-adv-x="569" />
<glyph unicode=" "  horiz-adv-x="569" />
<glyph unicode="&#x09;" horiz-adv-x="569" />
<glyph unicode="&#xa0;" horiz-adv-x="569" />
<glyph unicode="!" horiz-adv-x="555" d="M157 101q0 51 35 87q36 36 88 36q51 0 87 -36t36 -87q0 -52 -36 -88q-36 -35 -87 -35q-52 0 -88 35q-35 36 -35 88zM157 1104q0 310 123 310t123 -310q0 -153 -69 -576q-16 -90 -28 -105q-11 -15 -24 -15h-2h-3q-20 0 -31 32t-19 82q-70 450 -70 582z" />
<glyph unicode="&#x22;" horiz-adv-x="725" d="M92 1221v244h180v-246l-46 -282h-88zM440 1221v244h180v-246l-46 -282h-88z" />
<glyph unicode="#" horiz-adv-x="1196" d="M4 237v140h213l75 352h-288v140h319l82 393h147l-82 -393h397l82 393h147l-82 -393h186v-140h-215l-77 -352h292v-140h-322l-83 -404h-147l83 404h-397l-83 -404h-147l83 404h-183zM364 377h397l75 352h-395z" />
<glyph unicode="$" horiz-adv-x="1110" d="M104 123v255q177 -171 386 -215v429q-179 57 -281 147t-102 221q0 150 103 248q103 99 280 126v80h169v-80q176 -16 307 -117v-219q-134 113 -307 154v-401q370 -135 370 -399q0 -158 -101 -256q-100 -98 -269 -118v-224h-169v224q-108 8 -237 65q-128 57 -149 80z M305 985q0 -116 185 -181v348q-79 -8 -132 -57q-53 -48 -53 -110zM659 166q172 36 172 173q0 115 -172 190v-363z" />
<glyph unicode="%" horiz-adv-x="1393" d="M48 1098q0 132 93 224t225 92q129 0 221 -94t92 -222q0 -129 -92 -223q-92 -93 -221 -93q-132 0 -225 91q-93 92 -93 225zM160 -22l918 1436h154l-918 -1436h-154zM199 1098q0 -69 48 -117q48 -47 117 -47q68 0 116 47q48 48 48 117q0 68 -49 116q-48 48 -116 48 q-67 0 -116 -48q-48 -48 -48 -116zM713 294q0 132 93 224t225 92q129 0 221 -94t92 -222q0 -129 -92 -223q-92 -93 -221 -93q-132 0 -225 91q-93 92 -93 225zM864 294q0 -69 48 -117q48 -47 117 -47q68 0 116 47q48 48 48 117q0 68 -49 116q-48 48 -116 48q-67 0 -116 -48 q-48 -48 -48 -116z" />
<glyph unicode="&#x26;" horiz-adv-x="1280" d="M56 308q0 215 330 411q-157 164 -157 322q0 153 100 237q101 85 255 85q144 0 241 -87q98 -86 98 -219q0 -191 -258 -370l199 -223q95 89 152 225h201q-56 -170 -228 -370l276 -319h-257l-150 185q-228 -207 -434 -207q-160 0 -264 98q-104 99 -104 232zM257 315 q0 -69 50 -113t117 -44q136 0 303 168l-228 263q-121 -80 -182 -139q-60 -58 -60 -135zM427 1060q0 -109 127 -238q103 68 143 116q41 48 41 111q0 59 -44 102q-43 43 -114 43q-74 0 -114 -40q-39 -39 -39 -94z" />
<glyph unicode="'" horiz-adv-x="385" d="M96 1221v244h180v-246l-46 -282h-88z" />
<glyph unicode="(" horiz-adv-x="662" d="M140 478q0 -258 107 -512q106 -254 284 -430h108q-288 390 -288 943q0 555 288 942h-108q-189 -192 -290 -446t-101 -497z" />
<glyph unicode=")" horiz-adv-x="662" d="M23 -464q288 390 288 943q0 555 -288 942h108q189 -192 290 -446t101 -497q0 -258 -107 -512q-106 -254 -284 -430h-108z" />
<glyph unicode="*" horiz-adv-x="854" d="M23 827q0 51 85 80l253 93q-2 12 -2 21q0 10 4 23l-260 89q-80 28 -80 84q0 26 17 48t46 22q41 0 94 -48l193 -167q15 14 44 23l-50 255q-4 20 -4 45q0 84 73 84q66 0 66 -86q0 -21 -6 -49l-48 -249q18 0 41 -25l194 171q52 46 96 46q28 0 45 -20q18 -19 18 -51 q0 -55 -90 -86l-248 -86q2 -15 2 -23q0 -11 -2 -25l254 -85q84 -29 84 -86q0 -68 -65 -68q-42 0 -104 53l-185 160q-10 -11 -40 -21l48 -257q6 -32 6 -48q0 -79 -71 -79q-68 0 -68 84q0 16 8 58l46 242q-28 10 -44 25l-196 -176q-46 -41 -88 -41q-66 0 -66 70z" />
<glyph unicode="+" horiz-adv-x="1196" d="M112 638v170h400v400h170v-400h400v-170h-400v-400h-170v400h-400z" />
<glyph unicode="," horiz-adv-x="449" d="M96 141q0 55 34 89t90 34q63 0 100 -52t37 -138q0 -118 -65 -198q-64 -80 -169 -108v42q84 62 84 175q0 28 -4 39q-107 11 -107 117z" />
<glyph unicode="-" horiz-adv-x="662" d="M80 352v192h496v-192h-496z" />
<glyph unicode="." horiz-adv-x="449" d="M96 104q0 51 35 87q36 36 88 36q51 0 87 -36t36 -87q0 -52 -36 -88q-36 -35 -87 -35q-52 0 -88 35q-35 36 -35 88z" />
<glyph unicode="/" horiz-adv-x="575" d="M15 -22l402 1436h142l-402 -1436h-142z" />
<glyph unicode="0" d="M63 696q0 342 126 530q127 188 327 188q213 0 332 -191q120 -191 120 -527q0 -331 -130 -525q-129 -193 -326 -193q-199 0 -324 193q-125 194 -125 525zM264 696q0 -233 66 -380t187 -147q113 0 181 134q69 135 69 393q0 247 -66 387t-184 140q-121 0 -187 -144 q-66 -143 -66 -383z" />
<glyph unicode="1" d="M416 0v1392h201v-1392h-201z" />
<glyph unicode="2" d="M69 0v17q332 397 457 592q126 196 126 351q0 114 -71 186t-165 72q-169 0 -319 -188v251q159 133 331 133q197 0 311 -123q114 -122 114 -318q0 -297 -430 -782h530v-191h-884z" />
<glyph unicode="3" d="M132 60v222q155 -113 313 -113q96 0 162 58q66 59 66 164q0 100 -70 166q-70 67 -187 67h-44v185q279 0 279 204q0 100 -67 155q-66 55 -173 55q-131 0 -244 -65v195q131 61 268 61q192 0 304 -99q113 -98 113 -268q0 -122 -45 -194q-44 -71 -134 -120q77 -23 139 -108 t62 -225q0 -183 -122 -303q-122 -119 -324 -119q-157 0 -296 82z" />
<glyph unicode="4" d="M22 457v93l715 864h85v-775h151v-182h-151v-457h-201v457h-599zM295 639h326v401z" />
<glyph unicode="5" d="M103 61v205q149 -97 307 -97q123 0 206 75t83 170q0 114 -89 192t-242 78q-75 0 -161 -13v721h624v-182h-442v-350q8 3 52 3q193 0 326 -119q133 -118 133 -320q0 -190 -129 -318t-332 -128q-184 0 -336 83z" />
<glyph unicode="6" d="M78 472q0 298 162 542q163 245 408 400l121 -155q-131 -70 -259 -211q-128 -140 -175 -296q119 57 219 57q169 0 283 -116t114 -293q0 -172 -125 -297q-124 -125 -291 -125q-204 0 -331 136q-126 136 -126 358zM279 443q0 -115 68 -195q69 -79 175 -79q102 0 165 63 q63 64 63 167q0 94 -67 156q-66 63 -167 63q-127 0 -225 -74q-12 -44 -12 -101z" />
<glyph unicode="7" d="M96 1201v191h896l-626 -1414l-179 77l507 1146h-598z" />
<glyph unicode="8" d="M66 380q0 212 201 327q-169 115 -169 301q0 174 121 290q122 116 306 116q181 0 297 -118q117 -117 117 -288q0 -178 -173 -301q189 -111 189 -336q0 -171 -128 -282q-127 -111 -310 -111q-193 0 -322 115t-129 287zM267 389q0 -96 68 -158q69 -62 177 -62q104 0 173 62 t69 158q0 87 -65 153q-65 67 -175 67t-179 -61q-68 -60 -68 -159zM299 1013q0 -91 64 -152q65 -61 154 -61q92 0 156 58q65 59 65 150q0 94 -62 154q-62 61 -154 61q-101 0 -162 -55t-61 -155z" />
<glyph unicode="9" d="M60 995q0 173 124 296q125 123 302 123q199 0 323 -147q124 -146 124 -363q0 -283 -169 -538t-395 -388l-124 149q148 90 277 233q130 143 160 283q-115 -60 -219 -60q-169 0 -286 119t-117 293zM261 995q0 -92 70 -157q71 -64 171 -64q108 0 219 77q11 38 11 107 q0 108 -68 186q-68 79 -168 79q-104 0 -170 -63q-65 -63 -65 -165z" />
<glyph unicode=":" horiz-adv-x="449" d="M96 104q0 51 35 87q36 36 88 36q51 0 87 -36t36 -87q0 -52 -36 -88q-36 -35 -87 -35q-52 0 -88 35q-35 36 -35 88zM96 815q0 51 35 87q36 36 88 36q51 0 87 -36t36 -87q0 -52 -36 -88q-36 -35 -87 -35q-52 0 -88 35q-35 36 -35 88z" />
<glyph unicode=";" horiz-adv-x="449" d="M96 815q0 51 35 87q36 36 88 36q51 0 87 -36t36 -87q0 -52 -36 -88q-36 -35 -87 -35q-52 0 -88 35q-35 36 -35 88zM100 141q0 55 34 89t90 34q63 0 100 -52t37 -138q0 -118 -65 -198q-64 -80 -169 -108v42q84 62 84 175q0 28 -4 39q-107 11 -107 117z" />
<glyph unicode="&#x3c;" horiz-adv-x="1196" d="M108 638l976 -416v178l-770 321l770 322v178l-976 -416v-167z" />
<glyph unicode="=" horiz-adv-x="1196" d="M112 413v170h960v-170h-960zM112 855v170h960v-170h-960z" />
<glyph unicode="&#x3e;" horiz-adv-x="1196" d="M112 222v178l770 321l-770 322v178l976 -416v-167z" />
<glyph unicode="?" horiz-adv-x="682" d="M165 541q0 115 116 288q117 173 117 261q0 140 -140 140q-59 -2 -89 -12l96 196q157 0 245 -85t88 -214q0 -127 -81 -278q-76 -121 -151 -242q-82 -130 -82 -219q-2 -3 -2 -11v-13q-117 62 -117 189zM192 101q0 51 35 87q36 36 88 36q51 0 87 -36t36 -87q0 -52 -36 -88 q-36 -35 -87 -35q-52 0 -88 35q-35 36 -35 88z" />
<glyph unicode="@" horiz-adv-x="2068" d="M112 460q0 436 275 731q276 295 712 295q374 0 615 -221q242 -220 242 -557q0 -285 -189 -503q-188 -217 -414 -217q-201 0 -201 160q-146 -160 -303 -160t-261 123q-104 124 -104 323q0 239 160 435q160 197 360 197q184 0 301 -192l36 164h179l-160 -709 q-16 -76 -16 -101q0 -76 71 -76q109 0 251 163q142 164 142 388q0 277 -209 456q-208 179 -511 179q-363 0 -596 -248q-232 -247 -232 -607q0 -348 217 -558q218 -209 648 -209q233 0 419 82q186 83 276 218h184q-271 -448 -887 -448q-460 0 -733 236q-272 237 -272 656z M671 420q0 -120 59 -202t157 -82q133 0 247 151q114 152 114 347q0 123 -61 203q-61 81 -167 81q-145 0 -247 -160t-102 -338z" />
<glyph unicode="A" horiz-adv-x="1366" d="M0 0l608 1399h141l624 -1399h-204l-191 413h-591l-183 -413h-204zM0 1414zM463 593h437l-225 495zM681 1478zM1276 0z" />
<glyph unicode="B" horiz-adv-x="1153" d="M154 0v1392h407q205 0 319 -103q115 -102 115 -250q0 -223 -223 -302q152 -28 248 -123q97 -95 97 -243q0 -166 -130 -269q-130 -102 -355 -102h-478zM355 180h264q138 0 214 58q77 59 77 163q0 108 -86 161q-86 54 -224 54h-245v-436zM355 796h139q294 0 294 221 q0 195 -240 195h-193v-416z" />
<glyph unicode="C" horiz-adv-x="1450" d="M97 679q0 321 216 528q217 207 549 207q73 0 177 -19q105 -19 305 -98v-219q-246 153 -479 153q-242 0 -402 -153q-159 -153 -159 -386q0 -231 154 -381t403 -150q251 0 499 153v-215q-253 -121 -493 -121q-352 0 -561 209t-209 492zM852 0zM867 1478z" />
<glyph unicode="D" horiz-adv-x="1536" d="M0 1414zM157 0v1392h554q341 0 538 -206q197 -205 197 -490q0 -286 -206 -491q-205 -205 -529 -205h-554zM358 180h334q243 0 395 148t152 364q0 247 -156 383q-155 137 -408 137h-317v-1032zM676 1478z" />
<glyph unicode="E" d="M0 1414zM154 0v1392h793v-180h-592v-423h570v-180h-570v-429h611v-180h-812zM551 1478zM770 0z" />
<glyph unicode="F" horiz-adv-x="961" d="M157 0v1392h745v-180h-544v-387h544v-180h-544v-645h-201z" />
<glyph unicode="G" horiz-adv-x="1516" d="M104 690q0 311 215 517q215 207 540 207q121 0 236 -29q115 -28 256 -88v-203q-231 137 -496 137q-238 0 -391 -156t-153 -379q0 -239 159 -387q160 -148 402 -148q111 0 310 54v294h-272v180h473v-594q-265 -117 -530 -117q-328 0 -539 200q-210 200 -210 512zM830 0z M830 1478z" />
<glyph unicode="H" horiz-adv-x="1493" d="M154 0v1392h201v-603h775v603h201v-1392h-201v609h-775v-609h-201z" />
<glyph unicode="I" horiz-adv-x="512" d="M0 1414zM157 0v1392h201v-1392h-201zM251 0zM261 1478z" />
<glyph unicode="J" horiz-adv-x="512" d="M-129 -275h63q124 0 173 65q49 66 49 194v21v1387h201v-1416v-25q0 -194 -95 -306q-94 -112 -292 -112q-35 0 -61 4z" />
<glyph unicode="K" horiz-adv-x="1343" d="M154 0v1392h201v-636l581 636h251l-603 -658l754 -734h-276l-707 685v-685h-201zM691 0z" />
<glyph unicode="L" horiz-adv-x="1004" d="M0 1414zM151 0v1392h201v-1212h624v-180h-825zM325 1478zM605 0z" />
<glyph unicode="M" horiz-adv-x="1599" d="M151 0v1392h188l467 -573l468 573h188v-1392h-201v1091l-439 -547h-31l-439 543v-1087h-201z" />
<glyph unicode="N" horiz-adv-x="1599" d="M0 1414zM151 0v1392h160l944 -1077v1077h188v-1392h-173l-931 1071v-1071h-188zM812 0zM817 1478z" />
<glyph unicode="O" horiz-adv-x="1686" d="M91 696q0 297 208 507q209 211 544 211q325 0 538 -204q213 -203 213 -514q0 -303 -212 -511q-211 -207 -545 -207q-327 0 -537 206q-209 206 -209 512zM298 696q0 -230 155 -383q155 -152 390 -152t389 153q155 154 155 382q0 229 -155 382q-154 153 -390 153t-390 -151 q-154 -150 -154 -384zM848 1478z" />
<glyph unicode="P" horiz-adv-x="1044" d="M144 0v1392h430q214 0 328 -112q115 -111 115 -289q0 -180 -123 -285q-123 -104 -339 -104h-210v-602h-201zM345 782h225q112 0 176 57q64 58 64 156q0 217 -229 217h-236v-430z" />
<glyph unicode="Q" horiz-adv-x="1686" d="M91 701q0 303 205 508q206 205 547 205q328 0 539 -200q212 -199 212 -518q0 -302 -207 -506q-94 -93 -210 -142q-116 -48 -158 -48q234 -119 403 -119q58 0 124 19l-185 -188q-324 20 -678 288q-239 41 -416 229q-176 189 -176 472zM298 700q0 -229 155 -380t390 -151 t389 152q155 152 155 379q0 221 -154 376q-153 155 -391 155q-245 0 -395 -147q-149 -146 -149 -384z" />
<glyph unicode="R" horiz-adv-x="1237" d="M0 1414zM157 0v1392h351q218 0 338 -106t120 -289q0 -242 -232 -338q90 -52 227 -260q71 -106 152 -222t123 -177h-238l-176 272q-74 116 -165 223t-214 107h-85v-602h-201zM358 782h135q266 0 266 215t-263 215h-138v-430zM511 1478zM596 0z" />
<glyph unicode="S" horiz-adv-x="938" d="M82 1039q0 175 117 275t309 100q173 0 310 -99v-221q-54 53 -141 96q-86 44 -188 44q-99 0 -161 -49q-61 -49 -61 -118q0 -75 57 -130q57 -54 195 -134q206 -128 276 -220q71 -91 71 -226q0 -166 -109 -273q-109 -106 -278 -106q-224 0 -381 129v255q151 -204 360 -204 q96 0 159 48q64 48 64 129q0 74 -44 129q-43 55 -205 154q-147 93 -249 182q-101 90 -101 239zM431 0zM480 1478z" />
<glyph unicode="T" horiz-adv-x="1237" d="M0 1414zM32 1212v180h1161v-180h-480v-1212h-201v1212h-480zM613 0zM613 1478z" />
<glyph unicode="U" horiz-adv-x="1450" d="M0 1414zM125 530v862h201v-832q0 -217 118 -308t267 -91h8q176 0 291 85q116 86 123 287v46v813h201v-845q0 -278 -168 -424q-168 -145 -441 -145q-275 0 -438 144q-162 144 -162 408zM739 0zM739 1478z" />
<glyph unicode="V" horiz-adv-x="1237" d="M0 1392h201l423 -973l416 973h198l-592 -1407h-38z" />
<glyph unicode="W" horiz-adv-x="2134" d="M0 1392h201l381 -956l378 956h191l387 -962l375 962h198l-560 -1407h-38l-459 1143l-456 -1143h-38z" />
<glyph unicode="X" horiz-adv-x="1450" d="M3 0l606 723l-562 669h245l439 -533l438 533h242l-559 -669l597 -723h-240l-478 576l-483 -576h-245z" />
<glyph unicode="Y" horiz-adv-x="1237" d="M0 1392h245l364 -478l374 478h242l-512 -658v-734h-201v740zM0 1414zM613 1478z" />
<glyph unicode="Z" horiz-adv-x="1323" d="M0 1414zM31 0l894 1212h-838v180h1208l-894 -1212h894v-180h-1264zM663 1478z" />
<glyph unicode="[" horiz-adv-x="682" d="M171 -444h484v165h-288v1506h288v165h-484v-1836z" />
<glyph unicode="\" horiz-adv-x="575" d="M15 1414h142l402 -1430h-142z" />
<glyph unicode="]" horiz-adv-x="682" d="M27 -279h288v1506h-288v165h484v-1836h-484v165z" />
<glyph unicode="^" horiz-adv-x="961" d="M48 600l352 800h146l352 -800h-183l-243 597l-239 -597h-185z" />
<glyph unicode="_" d="M-12 -151h1024v-103h-1024v103z" />
<glyph unicode="`" horiz-adv-x="682" d="M122 1344h205l131 -304h-113zM367 1040z" />
<glyph unicode="a" horiz-adv-x="874" d="M74 204q0 85 53 152q54 68 284 146l146 49v51q0 164 -167 164q-165 0 -299 -155v198q109 122 311 122q161 0 249 -83t88 -224v-459q0 -52 33 -52q20 0 98 44v-110q-108 -66 -177 -66q-117 0 -139 96q-117 -96 -248 -96q-102 0 -167 66q-65 67 -65 157zM259 236 q0 -53 37 -89t97 -36q95 0 164 74v266l-113 -43q-185 -69 -185 -172zM419 1027zM724 0z" />
<glyph unicode="b" d="M120 53v1339h182v-541q105 80 256 80q171 0 285 -130q115 -129 115 -323q0 -235 -129 -366q-128 -131 -369 -131q-181 0 -340 72zM302 175q91 -29 191 -29q126 0 203 87q77 88 77 213q0 140 -71 230t-187 90q-95 0 -213 -87v-504z" />
<glyph unicode="c" horiz-adv-x="897" d="M83 441q0 220 118 355q119 135 336 135q72 0 129 -16q57 -15 130 -48v-191q-35 22 -98 56t-152 34q-130 0 -204 -89q-74 -88 -74 -221q0 -143 84 -227q84 -83 222 -83q108 0 242 62v-176q-125 -51 -266 -51q-203 0 -335 128t-132 332zM540 1027zM551 0z" />
<glyph unicode="d" horiz-adv-x="1044" d="M91 476q0 206 132 330q132 125 329 125q95 0 195 -40v501h182v-1392h-386q-211 0 -332 129q-120 129 -120 347zM276 456q0 -291 279 -291h192v568q-87 33 -169 33q-148 0 -225 -87t-77 -223z" />
<glyph unicode="e" horiz-adv-x="981" d="M83 467q0 203 117 333q117 131 308 131q192 0 293 -132t101 -371h-640q51 -282 304 -282q152 0 319 123v-178q-71 -46 -154 -78q-82 -32 -200 -32q-202 0 -325 139q-123 140 -123 347zM265 548h458q0 90 -57 154t-156 64q-209 0 -245 -218zM508 1027zM528 0z" />
<glyph unicode="f" horiz-adv-x="512" d="M16 752v160h128v71q0 211 96 319t234 108q87 0 124 -21v-161q-32 17 -80 17q-192 0 -192 -236v-97h160v-160h-160v-752h-182v752h-128z" />
<glyph unicode="g" horiz-adv-x="874" d="M0 -188q0 200 224 252q-84 56 -84 112q0 44 43 82q44 39 117 50q-217 85 -217 288q0 148 108 232t287 84h389v-142h-186q95 -94 95 -193q0 -115 -72 -192q-71 -77 -271 -109q-122 -31 -122 -80q0 -41 82 -66t212 -53q267 -57 267 -254q0 -138 -121 -213 q-121 -74 -318 -74q-188 0 -311 76q-122 76 -122 200zM174 -182q0 -137 264 -137q260 0 260 128q0 72 -90 110q-89 38 -219 38q-108 0 -162 -41q-53 -40 -53 -98zM248 593q0 -71 48 -118q49 -47 139 -47q75 0 125 47q51 47 51 122q0 64 -53 111t-127 47q-76 0 -130 -49 q-53 -48 -53 -113zM473 1008z" />
<glyph unicode="h" d="M125 0v1392h182v-605q105 144 282 144q144 0 227 -99t83 -272v-560h-182v562q0 98 -47 161t-131 63q-119 0 -232 -132v-654h-182z" />
<glyph unicode="i" horiz-adv-x="449" d="M117 1197q0 44 29 76q30 32 80 32q44 0 75 -30q32 -30 32 -79q0 -45 -32 -77q-32 -31 -77 -31t-76 31q-31 32 -31 78zM134 0v912h182v-912h-182zM228 0z" />
<glyph unicode="j" horiz-adv-x="449" d="M-12 -329q137 54 137 204v1037h182v-1032q0 -249 -182 -344zM108 1197q0 44 31 76q32 32 78 32q44 0 75 -30q32 -30 32 -79q0 -45 -32 -77q-32 -31 -77 -31t-76 31q-31 32 -31 78z" />
<glyph unicode="k" horiz-adv-x="981" d="M128 0v1392h182v-1392h-182zM319 467l415 445h216l-400 -445l483 -467h-245zM503 0z" />
<glyph unicode="l" horiz-adv-x="449" d="M134 0v1392h182v-1392h-182zM222 0zM222 1456z" />
<glyph unicode="m" horiz-adv-x="1579" d="M120 0v912h182v-125q129 144 267 144q179 0 275 -160q114 110 176 135q63 25 129 25q141 0 223 -95q82 -94 82 -229v-25v-582h-182v561q0 101 -54 158q-53 57 -132 57q-96 0 -208 -115v-661h-182v561q0 215 -168 215q-128 0 -226 -115v-661h-182z" />
<glyph unicode="n" d="M125 0v912h182v-125q105 144 282 144q144 0 227 -100t83 -271v-560h-182v562q0 104 -46 164t-132 60q-119 0 -232 -132v-654h-182zM503 0zM518 1027z" />
<glyph unicode="o" horiz-adv-x="1130" d="M74 463q0 197 139 332q139 136 350 136q213 0 354 -132q142 -132 142 -336q0 -221 -141 -352q-140 -130 -355 -130q-214 0 -352 135q-137 136 -137 347zM259 466q0 -147 83 -234q83 -86 217 -86q151 0 233 87q82 88 82 230q0 133 -91 218q-90 85 -224 85t-217 -86 t-83 -214zM563 1027z" />
<glyph unicode="p" d="M117 -464v1376h318q257 0 388 -122q132 -122 132 -340q0 -206 -129 -338q-129 -131 -332 -131q-86 0 -195 42v-487h-182zM299 186q103 -40 169 -40q130 0 216 85q86 86 86 218q0 298 -302 298h-169v-561z" />
<glyph unicode="q" d="M74 450q0 202 132 332t366 130h340v-1376h-182v480q-121 -35 -195 -35q-193 0 -327 130q-134 131 -134 339zM259 454q0 -129 86 -219q87 -89 216 -89q66 0 169 40v561h-169q-121 0 -212 -78q-90 -77 -90 -215z" />
<glyph unicode="r" horiz-adv-x="811" d="M142 0v912h182v-216q18 30 70 101q57 77 106 105q49 29 97 29q110 0 223 -107l-97 -158q-98 90 -175 90q-90 0 -157 -83q-67 -82 -67 -203v-470h-182zM253 0zM428 1027z" />
<glyph unicode="s" horiz-adv-x="788" d="M82 69v200q175 -123 301 -123q61 0 100 29q40 29 40 75q0 47 -114 115q-168 96 -243 164t-75 157q0 114 81 179q81 66 219 66q135 0 274 -76v-180q-135 91 -261 91q-128 0 -128 -80q0 -33 62 -80q20 -14 143 -94q124 -79 152 -105q75 -71 75 -164q0 -111 -86 -187 q-85 -75 -217 -75q-170 0 -323 88zM385 0zM397 1027z" />
<glyph unicode="t" horiz-adv-x="682" d="M0 747v20l341 337v-192h288v-165h-288v-460q0 -141 129 -141q108 0 207 64v-169q-96 -60 -223 -60q-136 0 -216 73q-79 74 -79 188v23v482h-159zM414 0z" />
<glyph unicode="u" d="M0 931zM122 341v571h182v-575q0 -204 189 -204q121 0 221 125v654h182v-912h-182v109q-27 -35 -109 -82q-82 -46 -164 -46q-146 0 -233 95q-86 96 -86 265zM509 1027zM808 0z" />
<glyph unicode="v" horiz-adv-x="897" d="M0 912h199l248 -560l238 560h194l-400 -931h-63z" />
<glyph unicode="w" horiz-adv-x="1473" d="M0 912h194l248 -553l230 553h134l227 -553l235 553h194l-400 -931h-57l-265 636l-267 -636h-57z" />
<glyph unicode="x" d="M0 0l384 463l-384 449h231l268 -310l259 310h234l-376 -449l402 -463h-231l-289 328l-267 -328h-231z" />
<glyph unicode="y" horiz-adv-x="897" d="M0 912h208l243 -511l241 511h205l-652 -1376h-202l315 661zM0 931zM470 1027z" />
<glyph unicode="z" horiz-adv-x="854" d="M0 931zM23 0l484 747h-464v165h780l-484 -747h487v-165h-803zM427 1027z" />
<glyph unicode="{" horiz-adv-x="682" d="M64 448v164q104 0 156 71q52 72 52 260v193q0 352 280 352h88v-156h-31q-98 0 -133 -35t-35 -151v-177q0 -218 -51 -304t-160 -135q116 -48 163 -146q48 -97 48 -293v-175q0 -122 35 -157q36 -35 129 -35h35v-156h-83q-146 0 -216 83q-69 84 -69 277v190q0 167 -45 248 q-44 82 -163 82z" />
<glyph unicode="|" horiz-adv-x="532" d="M192 -512v2048h156v-2048h-156z" />
<glyph unicode="}" horiz-adv-x="682" d="M48 -276h35q98 0 131 34q33 35 33 156v174q0 207 51 300q52 94 160 139q-114 51 -163 148q-48 97 -48 292v178q0 117 -36 152q-35 35 -132 35h-31v156h88q280 0 280 -354v-193q0 -189 51 -261q52 -71 157 -71v-164q-109 0 -159 -73q-49 -73 -49 -257v-187 q0 -193 -70 -277q-70 -83 -215 -83h-83v156z" />
<glyph unicode="~" horiz-adv-x="1196" d="M50 403v167q73 69 149 102q77 34 153 34q95 0 259 -79q164 -78 248 -78h9q58 0 141 50q84 50 129 88v-167q-144 -136 -285 -136q-97 0 -266 78q-168 79 -248 79q-74 0 -144 -42q-70 -41 -145 -96z" />
<glyph unicode="&#xa1;" horiz-adv-x="555" d="M152 -82q0 153 69 576q16 90 28 105q11 15 24 15h2h3q20 0 31 -32t19 -82q70 -450 70 -582q0 -310 -123 -310t-123 310zM152 921q0 52 36 88q36 35 87 35q52 0 88 -35q35 -36 35 -88q0 -51 -35 -87q-36 -36 -88 -36q-51 0 -87 36t-36 87z" />
<glyph unicode="&#xa2;" horiz-adv-x="897" d="M78 436q0 220 121 359q121 140 339 140q38 0 75 -4l122 340h94l-128 -359l43 -19t47 -21v-196q-28 20 -76 42q-47 23 -67 31l-211 -571q61 -27 136 -27q105 0 240 59v-175q-41 -15 -116 -36t-160 -21q-75 0 -160 19l-139 -387h-97l155 426q-89 53 -154 152 q-64 99 -64 248zM263 457q0 -150 98 -238l195 549q-132 0 -213 -88q-80 -87 -80 -223z" />
<glyph unicode="&#xa3;" horiz-adv-x="1087" d="M122 -22l161 609h-145v182h192v-6q112 368 241 509q129 142 272 142q33 0 84 -8l107 -200h-24q-37 17 -108 17q-143 0 -227 -115t-153 -345v6h160v-182h-212l-97 -391q33 3 89 3q105 0 208 -15q104 -15 146 -15q136 0 209 41v-195q-104 -37 -208 -37q-53 0 -170 15 t-191 15q-186 0 -334 -30z" />
<glyph unicode="&#xa4;" horiz-adv-x="1130" d="M77 327l141 142q-74 99 -74 233q0 107 74 233l-141 142l118 118l142 -141q100 74 238 74q112 0 228 -74l142 141l118 -118l-141 -142q74 -100 74 -233q0 -118 -74 -233l141 -142l-118 -118l-142 141q-102 -74 -233 -74q-120 0 -233 74l-142 -141zM308 702q0 -110 76 -186 t186 -76q115 0 188 76q74 76 74 186q0 107 -79 184q-78 78 -185 78q-110 0 -185 -77q-75 -76 -75 -185z" />
<glyph unicode="&#xa5;" horiz-adv-x="1130" d="M0 1465h201l370 -658l361 658h210l-409 -714h345v-143h-416v-144h416v-143h-416v-321h-182v321h-416v143h416v144h-416v143h345z" />
<glyph unicode="&#xa6;" horiz-adv-x="532" d="M192 358h156v-720h-156v720zM192 662v720h156v-720h-156z" />
<glyph unicode="&#xa7;" horiz-adv-x="831" d="M65 601q0 169 137 297q-60 106 -60 196q0 128 84 222q84 95 233 95q105 0 171 -47q67 -46 67 -126q0 -60 -31 -88q-31 -27 -76 -27q-35 0 -59 24q-24 25 -24 62q0 71 -58 71h-13q-56 0 -95 -36q-38 -35 -38 -106q0 -115 133 -242l125 -118q205 -194 205 -394 q0 -158 -152 -313q71 -102 71 -226q0 -138 -96 -224q-96 -85 -225 -85q-102 0 -168 53q-66 54 -66 125q0 52 31 89q32 37 81 37q40 0 68 -28t28 -65q-2 -8 -2 -22t-2 -23q0 -35 48 -35q52 0 97 41t45 103q0 111 -144 259l-95 98q-220 232 -220 433zM222 640q0 -117 121 -255 q95 -97 190 -197q76 75 76 171q0 112 -107 224l-215 205q-65 -70 -65 -148z" />
<glyph unicode="&#xa8;" horiz-adv-x="682" d="M48 1200q0 39 27 67q28 28 69 28q39 0 67 -28t28 -67q0 -41 -28 -69q-28 -27 -67 -27q-41 0 -69 27q-27 28 -27 69zM346 1040zM431 1200q0 39 27 67q28 28 69 28q39 0 67 -28t28 -67q0 -41 -28 -69q-28 -27 -67 -27q-41 0 -69 27q-27 28 -27 69z" />
<glyph unicode="&#xa9;" horiz-adv-x="1516" d="M0 728q0 314 222 537q223 223 538 223q314 0 537 -223t223 -537q0 -315 -223 -538q-223 -222 -537 -222q-315 0 -538 222q-222 223 -222 538zM128 728q0 -262 185 -447t447 -185q261 0 446 185q186 185 186 447q0 261 -186 446q-185 186 -446 186q-262 0 -447 -186 q-185 -185 -185 -446zM368 746q0 174 108 290q108 117 300 117q267 0 344 -241l-118 -31q-65 162 -236 162q-121 0 -191 -89q-69 -89 -69 -228q0 -143 70 -223t189 -80q91 0 157 50q66 51 90 136l123 -37q-30 -117 -127 -192t-245 -75q-190 0 -293 121q-102 121 -102 320z " />
<glyph unicode="&#xaa;" horiz-adv-x="575" d="M31 979q0 112 211 176l93 27q0 65 -17 90q-17 26 -74 26q-100 0 -204 -104v141q20 22 75 50q55 29 133 29q225 0 225 -184v-276q0 -25 12 -25h4q14 0 69 42v-88q-82 -49 -122 -49q-85 0 -101 51q-66 -51 -148 -51q-61 0 -109 39q-47 40 -47 106zM169 994q0 -68 78 -68 q46 0 88 37v148q-116 -42 -141 -65q-25 -22 -25 -52z" />
<glyph unicode="&#xab;" horiz-adv-x="1004" d="M60 456l300 -464h180l-303 464l303 464h-180zM476 456l300 -464h180l-303 464l303 464h-180z" />
<glyph unicode="&#xac;" horiz-adv-x="1196" d="M112 686v167h960v-599h-170v432h-790z" />
<glyph unicode="&#xad;" horiz-adv-x="662" d="M80 352v192h496v-192h-496z" />
<glyph unicode="&#xae;" horiz-adv-x="1516" d="M0 728q0 314 222 537q223 223 538 223q314 0 537 -223t223 -537q0 -315 -223 -538q-223 -222 -537 -222q-315 0 -538 222q-222 223 -222 538zM128 728q0 -262 185 -447t447 -185q261 0 446 185q186 185 186 447q0 261 -186 446q-185 186 -446 186q-262 0 -447 -186 q-185 -185 -185 -446zM432 319v805h363q114 0 187 -59q74 -59 74 -156q0 -99 -68 -162t-170 -67q78 -29 135 -116l159 -245h-159l-119 205q-79 136 -195 136h-77v-341h-130zM562 773h183q173 0 173 120q0 121 -152 121h-204v-241z" />
<glyph unicode="&#xb0;" horiz-adv-x="811" d="M128 1209q0 114 81 195q82 82 198 82q115 0 197 -82q82 -81 82 -196t-82 -196t-197 -81q-116 0 -198 81q-81 81 -81 197zM238 1210q0 -73 49 -123q49 -49 121 -49q69 0 118 49q50 50 50 123q0 69 -50 119q-49 50 -118 50q-72 0 -121 -50t-49 -119z" />
<glyph unicode="&#xb1;" horiz-adv-x="1196" d="M112 4v170h970v-170h-970zM112 638v170h400v400h170v-400h400v-170h-400v-400h-170v400h-400z" />
<glyph unicode="&#xb2;" horiz-adv-x="662" d="M58 672v12q202 220 269 318q68 99 68 172q0 63 -31 95q-31 33 -95 33q-117 0 -193 -126v162q105 78 204 78q122 0 190 -64t68 -165q0 -64 -35 -137t-206 -267h301v-111h-540z" />
<glyph unicode="&#xb3;" horiz-adv-x="662" d="M96 711v129q102 -63 193 -63q120 0 120 106q0 115 -132 115h-37v105q161 0 161 105q0 103 -127 103q-61 0 -158 -39v111q91 33 174 33q124 0 189 -54q65 -53 65 -141q0 -114 -98 -161q111 -39 111 -172q0 -84 -69 -154t-201 -70q-98 0 -191 47z" />
<glyph unicode="&#xb4;" horiz-adv-x="682" d="M224 1040l131 304h205l-223 -304h-113zM326 1040z" />
<glyph unicode="&#xb5;" horiz-adv-x="1130" d="M179 -368v1280h182v-512q0 -134 56 -208t150 -74q104 0 162 76t58 206v512h182v-912h-168v116q-80 -135 -225 -135q-138 0 -215 116v-465h-182z" />
<glyph unicode="&#xb6;" horiz-adv-x="1110" d="M0 1056q0 206 125 311t358 105h621v-164h-143v-1708h-169v1708h-223v-1708h-169v1040q-188 13 -294 122q-106 110 -106 294z" />
<glyph unicode="&#xb8;" horiz-adv-x="682" d="M208 -229q22 -3 53 -3q121 0 121 54t-95 54q-18 0 -31 -3l51 143h116l-12 -48q117 -29 117 -131q0 -185 -236 -185q-50 0 -84 6v113zM372 0z" />
<glyph unicode="&#xb9;" horiz-adv-x="662" d="M256 672v736h141v-736h-141z" />
<glyph unicode="&#xba;" horiz-adv-x="748" d="M48 1126q0 119 92 203q93 85 233 85q138 0 231 -84q94 -84 94 -208q0 -126 -94 -207t-231 -81q-143 0 -234 82q-91 83 -91 210zM186 1125q0 -78 50 -128q51 -50 138 -50q85 0 135 51q51 51 51 127q0 77 -49 126q-49 50 -135 50q-90 0 -140 -49q-50 -48 -50 -127z" />
<glyph unicode="&#xbb;" horiz-adv-x="1004" d="M48 -8l303 464l-303 464h180l300 -464l-300 -464h-180zM464 -8l303 464l-303 464h180l300 -464l-300 -464h-180z" />
<glyph unicode="&#xbc;" horiz-adv-x="1729" d="M330 -58l934 1472h138l-934 -1472h-138zM418 672v736h141v-736h-141zM984 229v54l413 457h67v-410h92v-101h-92v-237h-139v237h-341zM1170 330h155v176z" />
<glyph unicode="&#xbd;" horiz-adv-x="1729" d="M207 -58l934 1472h138l-934 -1472h-138zM295 672v736h141v-736h-141zM994 4q202 220 269 318q68 99 68 172q0 63 -31 95q-31 33 -95 33q-117 0 -193 -126v162q105 78 204 78q122 0 190 -64t68 -165q0 -64 -35 -137t-206 -267h301v-111h-540v12z" />
<glyph unicode="&#xbe;" horiz-adv-x="1729" d="M248 711v129q102 -63 193 -63q120 0 120 106q0 115 -132 115h-37v105q161 0 161 105q0 103 -127 103q-61 0 -158 -39v111q91 33 174 33q124 0 189 -54q65 -53 65 -141q0 -114 -98 -161q111 -39 111 -172q0 -84 -69 -154t-201 -70q-98 0 -191 47zM377 -58l934 1472h138 l-934 -1472h-138zM1031 229v54l413 457h67v-410h92v-101h-92v-237h-139v237h-341zM1217 330h155v176z" />
<glyph unicode="&#xbf;" horiz-adv-x="682" d="M84 -95q0 127 81 278q76 121 151 242q82 130 82 219q2 3 2 11v13q117 -62 117 -189q0 -115 -116 -288q-117 -173 -117 -261q0 -140 140 -140q59 2 89 12l-96 -196q-157 0 -245 85t-88 214zM244 919q0 52 36 88q36 35 87 35q52 0 88 -35q35 -36 35 -88q0 -51 -35 -87 q-36 -36 -88 -36q-51 0 -87 36t-36 87z" />
<glyph unicode="&#xc0;" horiz-adv-x="1366" d="M0 0l608 1399h141l624 -1399h-204l-191 413h-591l-183 -413h-204zM0 1414zM436 1782h205l131 -304h-113zM463 593h437l-225 495zM681 1478zM681 1478zM1276 0z" />
<glyph unicode="&#xc1;" horiz-adv-x="1366" d="M0 0l608 1399h141l624 -1399h-204l-191 413h-591l-183 -413h-204zM0 1414zM463 593h437l-225 495zM579 1478l131 304h205l-223 -304h-113zM681 1478zM681 1478zM1276 0z" />
<glyph unicode="&#xc2;" horiz-adv-x="1366" d="M0 0l608 1399h141l624 -1399h-204l-191 413h-591l-183 -413h-204zM0 1414zM393 1478l192 304h191l192 -304h-110l-181 175l-177 -175h-107zM463 593h437l-225 495zM681 1478zM681 1478zM1276 0z" />
<glyph unicode="&#xc3;" horiz-adv-x="1366" d="M0 0l608 1399h141l624 -1399h-204l-191 413h-591l-183 -413h-204zM0 1414zM388 1514q20 235 158 235q58 0 157 -36q100 -35 125 -35h6q59 0 72 77h77q0 -102 -43 -172q-42 -69 -117 -69q-56 0 -149 35q-93 36 -133 36q-64 0 -70 -71h-83zM463 593h437l-225 495zM681 1478 zM681 1478zM1276 0z" />
<glyph unicode="&#xc4;" horiz-adv-x="1366" d="M0 0l608 1399h141l624 -1399h-204l-191 413h-591l-183 -413h-204zM0 1414zM383 1638q0 39 27 67q28 28 69 28q39 0 67 -28t28 -67q0 -41 -28 -69q-28 -27 -67 -27q-41 0 -69 27q-27 28 -27 69zM463 593h437l-225 495zM681 1478zM681 1478zM766 1638q0 39 27 67 q28 28 69 28q39 0 67 -28t28 -67q0 -41 -28 -69q-28 -27 -67 -27q-41 0 -69 27q-27 28 -27 69zM1276 0z" />
<glyph unicode="&#xc5;" horiz-adv-x="1366" d="M0 0l608 1399h141l624 -1399h-204l-191 413h-591l-183 -413h-204zM0 1414zM463 593h437l-225 495zM490 1669q0 79 55 134q56 56 136 56q79 0 134 -56q56 -56 56 -135q0 -80 -56 -135t-135 -55q-80 0 -135 55q-55 56 -55 136zM567 1668q0 -48 33 -81q33 -32 81 -32 q47 0 80 33t33 81q0 47 -34 80q-33 33 -80 33q-48 0 -81 -34q-32 -33 -32 -80zM681 1478zM681 1478zM1276 0z" />
<glyph unicode="&#xc6;" horiz-adv-x="1835" d="M3 0l832 1392h899v-180h-570v-416h551v-180h-551v-436h592v-180h-793v616h-382l-371 -616h-207zM684 796h279v466z" />
<glyph unicode="&#xc7;" horiz-adv-x="1450" d="M97 679q0 321 216 528q217 207 549 207q73 0 177 -19q105 -19 305 -98v-219q-246 153 -479 153q-242 0 -402 -153q-159 -153 -159 -386q0 -231 154 -381t403 -150q251 0 499 153v-215q-253 -121 -493 -121q-352 0 -561 209t-209 492zM688 -229q22 -3 53 -3q121 0 121 54 t-95 54q-18 0 -31 -3l51 143h116l-12 -48q117 -29 117 -131q0 -185 -236 -185q-50 0 -84 6v113zM852 0zM852 0zM867 1478z" />
<glyph unicode="&#xc8;" d="M0 1414zM154 0v1392h793v-180h-592v-423h570v-180h-570v-429h611v-180h-812zM306 1782h205l131 -304h-113zM551 1478zM551 1478zM770 0z" />
<glyph unicode="&#xc9;" d="M0 1414zM154 0v1392h793v-180h-592v-423h570v-180h-570v-429h611v-180h-812zM449 1478l131 304h205l-223 -304h-113zM551 1478zM551 1478zM770 0z" />
<glyph unicode="&#xca;" d="M0 1414zM154 0v1392h793v-180h-592v-423h570v-180h-570v-429h611v-180h-812zM263 1478l192 304h191l192 -304h-110l-181 175l-177 -175h-107zM551 1478zM551 1478zM770 0z" />
<glyph unicode="&#xcb;" d="M0 1414zM154 0v1392h793v-180h-592v-423h570v-180h-570v-429h611v-180h-812zM253 1638q0 39 27 67q28 28 69 28q39 0 67 -28t28 -67q0 -41 -28 -69q-28 -27 -67 -27q-41 0 -69 27q-27 28 -27 69zM551 1478zM551 1478zM636 1638q0 39 27 67q28 28 69 28q39 0 67 -28 t28 -67q0 -41 -28 -69q-28 -27 -67 -27q-41 0 -69 27q-27 28 -27 69zM770 0z" />
<glyph unicode="&#xcc;" horiz-adv-x="512" d="M0 1414zM16 1782h205l131 -304h-113zM157 0v1392h201v-1392h-201zM251 0zM261 1478zM261 1478z" />
<glyph unicode="&#xcd;" horiz-adv-x="512" d="M0 1414zM157 0v1392h201v-1392h-201zM159 1478l131 304h205l-223 -304h-113zM251 0zM261 1478zM261 1478z" />
<glyph unicode="&#xce;" horiz-adv-x="512" d="M-27 1478l192 304h191l192 -304h-110l-181 175l-177 -175h-107zM0 1414zM157 0v1392h201v-1392h-201zM251 0zM261 1478zM261 1478z" />
<glyph unicode="&#xcf;" horiz-adv-x="512" d="M-37 1638q0 39 27 67q28 28 69 28q39 0 67 -28t28 -67q0 -41 -28 -69q-28 -27 -67 -27q-41 0 -69 27q-27 28 -27 69zM0 1414zM157 0v1392h201v-1392h-201zM251 0zM261 1478zM261 1478zM346 1638q0 39 27 67q28 28 69 28q39 0 67 -28t28 -67q0 -41 -28 -69 q-28 -27 -67 -27q-41 0 -69 27q-27 28 -27 69z" />
<glyph unicode="&#xd0;" horiz-adv-x="1536" d="M-6 609v180h163v603h554q330 0 532 -199q203 -198 203 -497q0 -286 -204 -491t-531 -205h-554v609h-163zM358 180h334q247 0 397 152t150 360q0 241 -155 380q-154 140 -409 140h-317v-423h400v-180h-400v-429z" />
<glyph unicode="&#xd1;" horiz-adv-x="1599" d="M0 1414zM151 0v1392h160l944 -1077v1077h188v-1392h-173l-931 1071v-1071h-188zM524 1514q20 235 158 235q58 0 157 -36q100 -35 125 -35h6q59 0 72 77h77q0 -102 -43 -172q-42 -69 -117 -69q-56 0 -149 35q-93 36 -133 36q-64 0 -70 -71h-83zM812 0zM817 1478zM817 1478 z" />
<glyph unicode="&#xd2;" horiz-adv-x="1686" d="M91 696q0 297 208 507q209 211 544 211q325 0 538 -204q213 -203 213 -514q0 -303 -212 -511q-211 -207 -545 -207q-327 0 -537 206q-209 206 -209 512zM298 696q0 -230 155 -383q155 -152 390 -152t389 153q155 154 155 382q0 229 -155 382q-154 153 -390 153t-390 -151 q-154 -150 -154 -384zM603 1782h205l131 -304h-113zM848 1478zM848 1478z" />
<glyph unicode="&#xd3;" horiz-adv-x="1686" d="M91 696q0 297 208 507q209 211 544 211q325 0 538 -204q213 -203 213 -514q0 -303 -212 -511q-211 -207 -545 -207q-327 0 -537 206q-209 206 -209 512zM298 696q0 -230 155 -383q155 -152 390 -152t389 153q155 154 155 382q0 229 -155 382q-154 153 -390 153t-390 -151 q-154 -150 -154 -384zM746 1478l131 304h205l-223 -304h-113zM848 1478zM848 1478z" />
<glyph unicode="&#xd4;" horiz-adv-x="1686" d="M91 696q0 297 208 507q209 211 544 211q325 0 538 -204q213 -203 213 -514q0 -303 -212 -511q-211 -207 -545 -207q-327 0 -537 206q-209 206 -209 512zM298 696q0 -230 155 -383q155 -152 390 -152t389 153q155 154 155 382q0 229 -155 382q-154 153 -390 153t-390 -151 q-154 -150 -154 -384zM560 1478l192 304h191l192 -304h-110l-181 175l-177 -175h-107zM848 1478zM848 1478z" />
<glyph unicode="&#xd5;" horiz-adv-x="1686" d="M91 696q0 297 208 507q209 211 544 211q325 0 538 -204q213 -203 213 -514q0 -303 -212 -511q-211 -207 -545 -207q-327 0 -537 206q-209 206 -209 512zM298 696q0 -230 155 -383q155 -152 390 -152t389 153q155 154 155 382q0 229 -155 382q-154 153 -390 153t-390 -151 q-154 -150 -154 -384zM555 1514q20 235 158 235q58 0 157 -36q100 -35 125 -35h6q59 0 72 77h77q0 -102 -43 -172q-42 -69 -117 -69q-56 0 -149 35q-93 36 -133 36q-64 0 -70 -71h-83zM848 1478zM848 1478z" />
<glyph unicode="&#xd6;" horiz-adv-x="1686" d="M91 696q0 297 208 507q209 211 544 211q325 0 538 -204q213 -203 213 -514q0 -303 -212 -511q-211 -207 -545 -207q-327 0 -537 206q-209 206 -209 512zM298 696q0 -230 155 -383q155 -152 390 -152t389 153q155 154 155 382q0 229 -155 382q-154 153 -390 153t-390 -151 q-154 -150 -154 -384zM550 1638q0 39 27 67q28 28 69 28q39 0 67 -28t28 -67q0 -41 -28 -69q-28 -27 -67 -27q-41 0 -69 27q-27 28 -27 69zM848 1478zM848 1478zM933 1638q0 39 27 67q28 28 69 28q39 0 67 -28t28 -67q0 -41 -28 -69q-28 -27 -67 -27q-41 0 -69 27 q-27 28 -27 69z" />
<glyph unicode="&#xd7;" horiz-adv-x="1196" d="M160 412l307 308l-307 312l122 122l308 -310l312 310l122 -122l-310 -312l310 -308l-122 -122l-312 307l-308 -307z" />
<glyph unicode="&#xd8;" horiz-adv-x="1686" d="M91 697q0 299 208 508t543 209q241 0 429 -119l104 122l94 -82l-99 -111q224 -206 224 -526q0 -304 -211 -512t-544 -208q-246 0 -430 122l-99 -111l-97 68l100 117q-222 206 -222 523zM298 692q0 -220 145 -369l701 823q-132 85 -300 85q-237 0 -392 -152 q-154 -152 -154 -387zM532 248q134 -87 304 -87q238 0 394 153q157 154 157 382q0 223 -149 374z" />
<glyph unicode="&#xd9;" horiz-adv-x="1450" d="M0 1414zM125 530v862h201v-832q0 -217 118 -308t267 -91h8q176 0 291 85q116 86 123 287v46v813h201v-845q0 -278 -168 -424q-168 -145 -441 -145q-275 0 -438 144q-162 144 -162 408zM494 1782h205l131 -304h-113zM739 0zM739 1478zM739 1478z" />
<glyph unicode="&#xda;" horiz-adv-x="1450" d="M0 1414zM125 530v862h201v-832q0 -217 118 -308t267 -91h8q176 0 291 85q116 86 123 287v46v813h201v-845q0 -278 -168 -424q-168 -145 -441 -145q-275 0 -438 144q-162 144 -162 408zM637 1478l131 304h205l-223 -304h-113zM739 0zM739 1478zM739 1478z" />
<glyph unicode="&#xdb;" horiz-adv-x="1450" d="M0 1414zM125 530v862h201v-832q0 -217 118 -308t267 -91h8q176 0 291 85q116 86 123 287v46v813h201v-845q0 -278 -168 -424q-168 -145 -441 -145q-275 0 -438 144q-162 144 -162 408zM451 1478l192 304h191l192 -304h-110l-181 175l-177 -175h-107zM739 0zM739 1478z M739 1478z" />
<glyph unicode="&#xdc;" horiz-adv-x="1450" d="M0 1414zM125 530v862h201v-832q0 -217 118 -308t267 -91h8q176 0 291 85q116 86 123 287v46v813h201v-845q0 -278 -168 -424q-168 -145 -441 -145q-275 0 -438 144q-162 144 -162 408zM441 1638q0 39 27 67q28 28 69 28q39 0 67 -28t28 -67q0 -41 -28 -69 q-28 -27 -67 -27q-41 0 -69 27q-27 28 -27 69zM739 0zM739 1478zM739 1478zM824 1638q0 39 27 67q28 28 69 28q39 0 67 -28t28 -67q0 -41 -28 -69q-28 -27 -67 -27q-41 0 -69 27q-27 28 -27 69z" />
<glyph unicode="&#xdd;" horiz-adv-x="1237" d="M0 1392h245l364 -478l374 478h242l-512 -658v-734h-201v740zM0 1414zM511 1478l131 304h205l-223 -304h-113zM613 1478zM613 1478z" />
<glyph unicode="&#xde;" horiz-adv-x="1044" d="M144 0v1392h201v-304h231q213 0 327 -109q114 -108 114 -293q0 -180 -123 -285q-123 -104 -339 -104h-210v-297h-201zM345 477h225q122 0 181 60t59 154q0 217 -229 217h-236v-431z" />
<glyph unicode="&#xdf;" d="M120 0v1052q0 166 101 262t289 96q174 0 279 -89q105 -88 105 -251q0 -114 -68 -197q-67 -83 -145 -107q128 -29 202 -126q75 -97 75 -239q0 -188 -99 -304q-98 -116 -269 -116q-55 0 -128 18v169q44 -22 98 -22q95 0 154 69t59 181q0 279 -311 279v165q247 0 247 211 q0 93 -53 155q-52 62 -143 62q-105 0 -158 -58t-53 -175v-1035h-182z" />
<glyph unicode="&#xe0;" horiz-adv-x="874" d="M74 204q0 85 53 152q54 68 284 146l146 49v51q0 164 -167 164q-165 0 -299 -155v198q109 122 311 122q161 0 249 -83t88 -224v-459q0 -52 33 -52q20 0 98 44v-110q-108 -66 -177 -66q-117 0 -139 96q-117 -96 -248 -96q-102 0 -167 66q-65 67 -65 157zM174 1331h205 l131 -304h-113zM259 236q0 -53 37 -89t97 -36q95 0 164 74v266l-113 -43q-185 -69 -185 -172zM419 1027zM419 1027zM724 0z" />
<glyph unicode="&#xe1;" horiz-adv-x="874" d="M74 204q0 85 53 152q54 68 284 146l146 49v51q0 164 -167 164q-165 0 -299 -155v198q109 122 311 122q161 0 249 -83t88 -224v-459q0 -52 33 -52q20 0 98 44v-110q-108 -66 -177 -66q-117 0 -139 96q-117 -96 -248 -96q-102 0 -167 66q-65 67 -65 157zM259 236 q0 -53 37 -89t97 -36q95 0 164 74v266l-113 -43q-185 -69 -185 -172zM317 1027l131 304h205l-223 -304h-113zM419 1027zM419 1027zM724 0z" />
<glyph unicode="&#xe2;" horiz-adv-x="874" d="M74 204q0 85 53 152q54 68 284 146l146 49v51q0 164 -167 164q-165 0 -299 -155v198q109 122 311 122q161 0 249 -83t88 -224v-459q0 -52 33 -52q20 0 98 44v-110q-108 -66 -177 -66q-117 0 -139 96q-117 -96 -248 -96q-102 0 -167 66q-65 67 -65 157zM131 1027l192 304 h191l192 -304h-110l-181 175l-177 -175h-107zM259 236q0 -53 37 -89t97 -36q95 0 164 74v266l-113 -43q-185 -69 -185 -172zM419 1027zM419 1027zM724 0z" />
<glyph unicode="&#xe3;" horiz-adv-x="874" d="M74 204q0 85 53 152q54 68 284 146l146 49v51q0 164 -167 164q-165 0 -299 -155v198q109 122 311 122q161 0 249 -83t88 -224v-459q0 -52 33 -52q20 0 98 44v-110q-108 -66 -177 -66q-117 0 -139 96q-117 -96 -248 -96q-102 0 -167 66q-65 67 -65 157zM126 1063 q20 235 158 235q58 0 157 -36q100 -35 125 -35h6q59 0 72 77h77q0 -102 -43 -172q-42 -69 -117 -69q-56 0 -149 35q-93 36 -133 36q-64 0 -70 -71h-83zM259 236q0 -53 37 -89t97 -36q95 0 164 74v266l-113 -43q-185 -69 -185 -172zM419 1027zM419 1027zM724 0z" />
<glyph unicode="&#xe4;" horiz-adv-x="874" d="M74 204q0 85 53 152q54 68 284 146l146 49v51q0 164 -167 164q-165 0 -299 -155v198q109 122 311 122q161 0 249 -83t88 -224v-459q0 -52 33 -52q20 0 98 44v-110q-108 -66 -177 -66q-117 0 -139 96q-117 -96 -248 -96q-102 0 -167 66q-65 67 -65 157zM121 1187 q0 39 27 67q28 28 69 28q39 0 67 -28t28 -67q0 -41 -28 -69q-28 -27 -67 -27q-41 0 -69 27q-27 28 -27 69zM259 236q0 -53 37 -89t97 -36q95 0 164 74v266l-113 -43q-185 -69 -185 -172zM419 1027zM419 1027zM504 1187q0 39 27 67q28 28 69 28q39 0 67 -28t28 -67 q0 -41 -28 -69q-28 -27 -67 -27q-41 0 -69 27q-27 28 -27 69zM724 0z" />
<glyph unicode="&#xe5;" horiz-adv-x="874" d="M74 204q0 85 53 152q54 68 284 146l146 49v51q0 164 -167 164q-165 0 -299 -155v198q109 122 311 122q161 0 249 -83t88 -224v-459q0 -52 33 -52q20 0 98 44v-110q-108 -66 -177 -66q-117 0 -139 96q-117 -96 -248 -96q-102 0 -167 66q-65 67 -65 157zM228 1218 q0 79 55 134q56 56 136 56q79 0 134 -56q56 -56 56 -135q0 -80 -56 -135t-135 -55q-80 0 -135 55q-55 56 -55 136zM259 236q0 -53 37 -89t97 -36q95 0 164 74v266l-113 -43q-185 -69 -185 -172zM305 1217q0 -48 33 -81q33 -32 81 -32q47 0 80 33t33 81q0 47 -34 80 q-33 33 -80 33q-48 0 -81 -34q-32 -33 -32 -80zM419 1027zM419 1027zM724 0z" />
<glyph unicode="&#xe6;" horiz-adv-x="1366" d="M71 211q0 91 65 163q65 73 281 136l118 36v56q0 164 -144 164q-170 0 -300 -155v218q117 102 296 102q172 0 270 -112q118 112 270 112q161 0 254 -108t93 -278v-51h-560q0 -161 77 -255q78 -93 202 -93t284 123v-186q-148 -102 -306 -102q-217 0 -313 144 q-167 -144 -349 -144q-108 0 -173 67t-65 163zM256 251q0 -57 32 -101t93 -44h7q38 0 82 22q45 22 62 33v295q-148 -54 -207 -97q-69 -49 -69 -108zM740 614h355q-15 152 -172 152q-133 0 -183 -152z" />
<glyph unicode="&#xe7;" horiz-adv-x="897" d="M83 441q0 220 118 355q119 135 336 135q72 0 129 -16q57 -15 130 -48v-191q-35 22 -98 56t-152 34q-130 0 -204 -89q-74 -88 -74 -221q0 -143 84 -227q84 -83 222 -83q108 0 242 62v-176q-125 -51 -266 -51q-203 0 -335 128t-132 332zM387 -229q22 -3 53 -3q121 0 121 54 t-95 54q-18 0 -31 -3l51 143h116l-12 -48q117 -29 117 -131q0 -185 -236 -185q-50 0 -84 6v113zM540 1027zM551 0zM551 0z" />
<glyph unicode="&#xe8;" horiz-adv-x="981" d="M83 467q0 203 117 333q117 131 308 131q192 0 293 -132t101 -371h-640q51 -282 304 -282q152 0 319 123v-178q-71 -46 -154 -78q-82 -32 -200 -32q-202 0 -325 139q-123 140 -123 347zM263 1331h205l131 -304h-113zM265 548h458q0 90 -57 154t-156 64q-209 0 -245 -218z M508 1027zM508 1027zM528 0z" />
<glyph unicode="&#xe9;" horiz-adv-x="981" d="M83 467q0 203 117 333q117 131 308 131q192 0 293 -132t101 -371h-640q51 -282 304 -282q152 0 319 123v-178q-71 -46 -154 -78q-82 -32 -200 -32q-202 0 -325 139q-123 140 -123 347zM265 548h458q0 90 -57 154t-156 64q-209 0 -245 -218zM406 1027l131 304h205 l-223 -304h-113zM508 1027zM508 1027zM528 0z" />
<glyph unicode="&#xea;" horiz-adv-x="981" d="M83 467q0 203 117 333q117 131 308 131q192 0 293 -132t101 -371h-640q51 -282 304 -282q152 0 319 123v-178q-71 -46 -154 -78q-82 -32 -200 -32q-202 0 -325 139q-123 140 -123 347zM220 1027l192 304h191l192 -304h-110l-181 175l-177 -175h-107zM265 548h458 q0 90 -57 154t-156 64q-209 0 -245 -218zM508 1027zM508 1027zM528 0z" />
<glyph unicode="&#xeb;" horiz-adv-x="981" d="M83 467q0 203 117 333q117 131 308 131q192 0 293 -132t101 -371h-640q51 -282 304 -282q152 0 319 123v-178q-71 -46 -154 -78q-82 -32 -200 -32q-202 0 -325 139q-123 140 -123 347zM210 1187q0 39 27 67q28 28 69 28q39 0 67 -28t28 -67q0 -41 -28 -69 q-28 -27 -67 -27q-41 0 -69 27q-27 28 -27 69zM265 548h458q0 90 -57 154t-156 64q-209 0 -245 -218zM508 1027zM508 1027zM528 0zM593 1187q0 39 27 67q28 28 69 28q39 0 67 -28t28 -67q0 -41 -28 -69q-28 -27 -67 -27q-41 0 -69 27q-27 28 -27 69z" />
<glyph unicode="&#xec;" horiz-adv-x="449" d="M-19 1331h205l131 -304h-113zM0 931zM134 0v912h182v-912h-182zM226 1027zM226 1027z" />
<glyph unicode="&#xed;" horiz-adv-x="449" d="M0 931zM124 1027l131 304h205l-223 -304h-113zM134 0v912h182v-912h-182zM226 1027zM226 1027z" />
<glyph unicode="&#xee;" horiz-adv-x="449" d="M-62 1027l192 304h191l192 -304h-110l-181 175l-177 -175h-107zM0 931zM134 0v912h182v-912h-182zM226 1027zM226 1027z" />
<glyph unicode="&#xef;" horiz-adv-x="449" d="M-72 1187q0 39 27 67q28 28 69 28q39 0 67 -28t28 -67q0 -41 -28 -69q-28 -27 -67 -27q-41 0 -69 27q-27 28 -27 69zM0 931zM134 0v912h182v-912h-182zM226 1027zM226 1027zM311 1187q0 39 27 67q28 28 69 28q39 0 67 -28t28 -67q0 -41 -28 -69q-28 -27 -67 -27 q-41 0 -69 27q-27 28 -27 69z" />
<glyph unicode="&#xf0;" horiz-adv-x="1153" d="M74 463q0 195 139 331q140 137 341 137q163 0 278 -92q-49 140 -181 275l-278 -135l-57 107l231 116q-40 38 -137 86l125 120q90 -30 194 -123l245 123l57 -107l-208 -104q236 -278 236 -623q0 -297 -137 -445t-359 -148q-214 0 -352 135q-137 136 -137 347zM259 466 q0 -147 83 -234q83 -86 217 -86q151 0 236 90q79 85 79 227q0 133 -91 218q-90 85 -224 85t-217 -86t-83 -214z" />
<glyph unicode="&#xf1;" d="M125 0v912h182v-125q105 144 282 144q144 0 227 -100t83 -271v-560h-182v562q0 104 -46 164t-132 60q-119 0 -232 -132v-654h-182zM225 1063q20 235 158 235q58 0 157 -36q100 -35 125 -35h6q59 0 72 77h77q0 -102 -43 -172q-42 -69 -117 -69q-56 0 -149 35 q-93 36 -133 36q-64 0 -70 -71h-83zM503 0zM518 1027zM518 1027z" />
<glyph unicode="&#xf2;" horiz-adv-x="1130" d="M74 463q0 197 139 332q139 136 350 136q213 0 354 -132q142 -132 142 -336q0 -221 -141 -352q-140 -130 -355 -130q-214 0 -352 135q-137 136 -137 347zM259 466q0 -147 83 -234q83 -86 217 -86q151 0 233 87q82 88 82 230q0 133 -91 218q-90 85 -224 85t-217 -86 t-83 -214zM318 1331h205l131 -304h-113zM563 1027zM563 1027z" />
<glyph unicode="&#xf3;" horiz-adv-x="1130" d="M74 463q0 197 139 332q139 136 350 136q213 0 354 -132q142 -132 142 -336q0 -221 -141 -352q-140 -130 -355 -130q-214 0 -352 135q-137 136 -137 347zM259 466q0 -147 83 -234q83 -86 217 -86q151 0 233 87q82 88 82 230q0 133 -91 218q-90 85 -224 85t-217 -86 t-83 -214zM461 1027l131 304h205l-223 -304h-113zM563 1027zM563 1027z" />
<glyph unicode="&#xf4;" horiz-adv-x="1130" d="M74 463q0 197 139 332q139 136 350 136q213 0 354 -132q142 -132 142 -336q0 -221 -141 -352q-140 -130 -355 -130q-214 0 -352 135q-137 136 -137 347zM259 466q0 -147 83 -234q83 -86 217 -86q151 0 233 87q82 88 82 230q0 133 -91 218q-90 85 -224 85t-217 -86 t-83 -214zM275 1027l192 304h191l192 -304h-110l-181 175l-177 -175h-107zM563 1027zM563 1027z" />
<glyph unicode="&#xf5;" horiz-adv-x="1130" d="M74 463q0 197 139 332q139 136 350 136q213 0 354 -132q142 -132 142 -336q0 -221 -141 -352q-140 -130 -355 -130q-214 0 -352 135q-137 136 -137 347zM259 466q0 -147 83 -234q83 -86 217 -86q151 0 233 87q82 88 82 230q0 133 -91 218q-90 85 -224 85t-217 -86 t-83 -214zM270 1063q20 235 158 235q58 0 157 -36q100 -35 125 -35h6q59 0 72 77h77q0 -102 -43 -172q-42 -69 -117 -69q-56 0 -149 35q-93 36 -133 36q-64 0 -70 -71h-83zM563 1027zM563 1027z" />
<glyph unicode="&#xf6;" horiz-adv-x="1130" d="M74 463q0 197 139 332q139 136 350 136q213 0 354 -132q142 -132 142 -336q0 -221 -141 -352q-140 -130 -355 -130q-214 0 -352 135q-137 136 -137 347zM259 466q0 -147 83 -234q83 -86 217 -86q151 0 233 87q82 88 82 230q0 133 -91 218q-90 85 -224 85t-217 -86 t-83 -214zM265 1187q0 39 27 67q28 28 69 28q39 0 67 -28t28 -67q0 -41 -28 -69q-28 -27 -67 -27q-41 0 -69 27q-27 28 -27 69zM563 1027zM563 1027zM648 1187q0 39 27 67q28 28 69 28q39 0 67 -28t28 -67q0 -41 -28 -69q-28 -27 -67 -27q-41 0 -69 27q-27 28 -27 69z" />
<glyph unicode="&#xf7;" horiz-adv-x="1196" d="M112 638v170h986v-170h-986zM496 415q0 45 31 78q32 33 78 33q45 0 77 -34q32 -33 32 -79t-32 -79q-32 -32 -77 -32q-46 0 -78 33q-31 33 -31 80zM496 1033q0 45 31 78q32 33 78 33q45 0 77 -34q32 -33 32 -79t-32 -79q-32 -32 -77 -32q-46 0 -78 33q-31 33 -31 80z" />
<glyph unicode="&#xf8;" horiz-adv-x="1130" d="M74 466q0 194 136 329q137 136 353 136q159 0 284 -75l96 107l68 -62l-90 -106q138 -132 138 -330q0 -222 -141 -353q-140 -131 -355 -131q-155 0 -274 74l-121 -138l-68 62l112 133q-138 138 -138 354zM259 463q0 -133 72 -219l400 476q-75 46 -172 46q-134 0 -217 -87 q-83 -86 -83 -216zM400 186q70 -40 160 -40q150 0 235 90q79 85 79 227q0 113 -69 196z" />
<glyph unicode="&#xf9;" d="M0 931zM122 341v571h182v-575q0 -204 189 -204q121 0 221 125v654h182v-912h-182v109q-27 -35 -109 -82q-82 -46 -164 -46q-146 0 -233 95q-86 96 -86 265zM264 1331h205l131 -304h-113zM509 1027zM509 1027zM808 0z" />
<glyph unicode="&#xfa;" d="M0 931zM122 341v571h182v-575q0 -204 189 -204q121 0 221 125v654h182v-912h-182v109q-27 -35 -109 -82q-82 -46 -164 -46q-146 0 -233 95q-86 96 -86 265zM407 1027l131 304h205l-223 -304h-113zM509 1027zM509 1027zM808 0z" />
<glyph unicode="&#xfb;" d="M0 931zM122 341v571h182v-575q0 -204 189 -204q121 0 221 125v654h182v-912h-182v109q-27 -35 -109 -82q-82 -46 -164 -46q-146 0 -233 95q-86 96 -86 265zM221 1027l192 304h191l192 -304h-110l-181 175l-177 -175h-107zM509 1027zM509 1027zM808 0z" />
<glyph unicode="&#xfc;" d="M0 931zM122 341v571h182v-575q0 -204 189 -204q121 0 221 125v654h182v-912h-182v109q-27 -35 -109 -82q-82 -46 -164 -46q-146 0 -233 95q-86 96 -86 265zM211 1187q0 39 27 67q28 28 69 28q39 0 67 -28t28 -67q0 -41 -28 -69q-28 -27 -67 -27q-41 0 -69 27 q-27 28 -27 69zM509 1027zM509 1027zM594 1187q0 39 27 67q28 28 69 28q39 0 67 -28t28 -67q0 -41 -28 -69q-28 -27 -67 -27q-41 0 -69 27q-27 28 -27 69zM808 0z" />
<glyph unicode="&#xfd;" horiz-adv-x="897" d="M0 912h208l243 -511l241 511h205l-652 -1376h-202l315 661zM0 931zM368 1027l131 304h205l-223 -304h-113zM470 1027zM470 1027z" />
<glyph unicode="&#xfe;" d="M117 -464v1856h182v-461h133q265 0 394 -124q129 -123 129 -347q0 -204 -128 -342q-128 -137 -333 -137q-86 0 -195 48v-493h-182zM299 191q51 -23 92 -34q42 -11 77 -11q139 0 220 85q82 85 82 227q0 308 -302 308h-169v-575z" />
<glyph unicode="&#xff;" horiz-adv-x="897" d="M0 912h208l243 -511l241 511h205l-652 -1376h-202l315 661zM0 931zM172 1187q0 39 27 67q28 28 69 28q39 0 67 -28t28 -67q0 -41 -28 -69q-28 -27 -67 -27q-41 0 -69 27q-27 28 -27 69zM470 1027zM470 1027zM555 1187q0 39 27 67q28 28 69 28q39 0 67 -28t28 -67 q0 -41 -28 -69q-28 -27 -67 -27q-41 0 -69 27q-27 28 -27 69z" />
<glyph unicode="&#x152;" horiz-adv-x="1878" d="M97 696q0 309 223 502q223 194 560 194h916v-180h-570v-416h548v-180h-548v-436h592v-180h-908q-372 0 -593 197q-220 197 -220 499zM304 696q0 -237 168 -379q169 -142 374 -142h16h163v1042h-110q-282 0 -447 -150q-164 -150 -164 -371z" />
<glyph unicode="&#x153;" horiz-adv-x="1706" d="M71 434q0 225 143 361t362 136q255 0 387 -192q114 192 333 192q153 0 246 -117q93 -116 93 -271v-49h-573l-3 -39q0 -132 76 -221q76 -88 204 -88q106 0 183 45q77 46 116 78v-190q-60 -35 -140 -67q-79 -31 -189 -31q-238 0 -344 192q-140 -192 -402 -192 q-208 0 -350 136t-142 317zM256 449q0 -134 93 -219q93 -84 215 -84q139 0 223 87q84 88 84 228q0 135 -87 220q-86 85 -213 85q-140 0 -228 -93q-87 -93 -87 -224zM1079 614h377q-23 152 -171 152q-153 0 -206 -152z" />
<glyph unicode="&#x178;" horiz-adv-x="1237" d="M0 1392h245l364 -478l374 478h242l-512 -658v-734h-201v740zM0 1414zM315 1638q0 39 27 67q28 28 69 28q39 0 67 -28t28 -67q0 -41 -28 -69q-28 -27 -67 -27q-41 0 -69 27q-27 28 -27 69zM613 1478zM613 1478zM698 1638q0 39 27 67q28 28 69 28q39 0 67 -28t28 -67 q0 -41 -28 -69q-28 -27 -67 -27q-41 0 -69 27q-27 28 -27 69z" />
<glyph unicode="&#x2c6;" horiz-adv-x="682" d="M48 1040l192 304h191l192 -304h-110l-181 175l-177 -175h-107zM336 1040z" />
<glyph unicode="&#x2dc;" horiz-adv-x="682" d="M48 1076q20 235 158 235q58 0 157 -36q100 -35 125 -35h6q59 0 72 77h77q0 -102 -43 -172q-42 -69 -117 -69q-56 0 -149 35q-93 36 -133 36q-64 0 -70 -71h-83zM341 1040z" />
<glyph unicode="&#x2000;" horiz-adv-x="929" />
<glyph unicode="&#x2001;" horiz-adv-x="1859" />
<glyph unicode="&#x2002;" horiz-adv-x="929" />
<glyph unicode="&#x2003;" horiz-adv-x="1859" />
<glyph unicode="&#x2004;" horiz-adv-x="619" />
<glyph unicode="&#x2005;" horiz-adv-x="464" />
<glyph unicode="&#x2006;" horiz-adv-x="309" />
<glyph unicode="&#x2007;" horiz-adv-x="309" />
<glyph unicode="&#x2008;" horiz-adv-x="232" />
<glyph unicode="&#x2009;" horiz-adv-x="371" />
<glyph unicode="&#x200a;" horiz-adv-x="103" />
<glyph unicode="&#x2010;" horiz-adv-x="662" d="M80 352v192h496v-192h-496z" />
<glyph unicode="&#x2011;" horiz-adv-x="662" d="M80 352v192h496v-192h-496z" />
<glyph unicode="&#x2012;" horiz-adv-x="662" d="M80 352v192h496v-192h-496z" />
<glyph unicode="&#x2013;" d="M-19 451v131h1056v-131h-1056z" />
<glyph unicode="&#x2014;" horiz-adv-x="2048" d="M-19 451v131h2080v-131h-2080z" />
<glyph unicode="&#x2018;" horiz-adv-x="449" d="M97 1104q0 119 65 200q64 81 169 110v-42q-84 -62 -84 -175q0 -28 4 -39q102 -12 102 -119q0 -57 -32 -92t-89 -35q-68 0 -101 54q-34 54 -34 138z" />
<glyph unicode="&#x2019;" horiz-adv-x="449" d="M96 1287q0 57 32 92t89 35q68 0 101 -54q34 -54 34 -138q0 -119 -65 -200q-64 -81 -169 -110v42q84 62 84 175q0 28 -4 39q-102 12 -102 119z" />
<glyph unicode="&#x201a;" horiz-adv-x="449" d="M96 140q0 57 32 92t89 35q68 0 101 -54q34 -54 34 -138q0 -119 -65 -200q-64 -81 -169 -110v42q84 62 84 175q0 28 -4 39q-102 12 -102 119z" />
<glyph unicode="&#x201c;" horiz-adv-x="874" d="M86 1104q0 119 65 200q64 81 169 110v-42q-84 -62 -84 -175q0 -28 4 -39q102 -12 102 -119q0 -55 -31 -91t-90 -36q-62 0 -98 50q-37 50 -37 142zM534 1104q0 119 65 200q64 81 169 110v-42q-84 -62 -84 -175q0 -28 4 -39q102 -12 102 -119q0 -55 -31 -91t-90 -36 q-62 0 -98 53q-37 52 -37 139z" />
<glyph unicode="&#x201d;" horiz-adv-x="874" d="M84 1287q0 55 31 91t90 36q62 0 98 -53q37 -52 37 -139q0 -119 -65 -200q-64 -81 -169 -110v42q84 62 84 175q0 28 -4 39q-102 12 -102 119zM532 1287q0 55 31 91t90 36q62 0 98 -50q37 -50 37 -142q0 -119 -65 -200q-64 -81 -169 -110v42q84 62 84 175q0 28 -4 39 q-102 12 -102 119z" />
<glyph unicode="&#x201e;" horiz-adv-x="874" d="M104 140q0 55 31 91t90 36q62 0 98 -53q37 -52 37 -139q0 -119 -65 -200q-64 -81 -169 -110v42q84 62 84 175q0 28 -4 39q-102 12 -102 119zM552 140q0 55 31 91t90 36q62 0 98 -50q37 -50 37 -142q0 -119 -65 -200q-64 -81 -169 -110v42q84 62 84 175q0 28 -4 39 q-102 12 -102 119z" />
<glyph unicode="&#x2022;" horiz-adv-x="725" d="M104 706q0 104 75 179q76 75 183 75q104 0 179 -75t75 -179q0 -107 -75 -183q-75 -75 -179 -75q-107 0 -183 75q-75 76 -75 183z" />
<glyph unicode="&#x2026;" horiz-adv-x="2048" d="M224 104q0 51 35 87q36 36 88 36q51 0 87 -36t36 -87q0 -52 -36 -88q-36 -35 -87 -35q-52 0 -88 35q-35 36 -35 88zM912 104q0 51 35 87q36 36 88 36q51 0 87 -36t36 -87q0 -52 -36 -88q-36 -35 -87 -35q-52 0 -88 35q-35 36 -35 88zM1600 104q0 51 35 87q36 36 88 36 q51 0 87 -36t36 -87q0 -52 -36 -88q-36 -35 -87 -35q-52 0 -88 35q-35 36 -35 88z" />
<glyph unicode="&#x202f;" horiz-adv-x="371" />
<glyph unicode="&#x2039;" horiz-adv-x="641" d="M77 456l300 -464h180l-303 464l303 464h-180z" />
<glyph unicode="&#x203a;" horiz-adv-x="641" d="M84 -8l303 464l-303 464h180l300 -464l-300 -464h-180z" />
<glyph unicode="&#x205f;" horiz-adv-x="464" />
<glyph unicode="&#x20ac;" d="M51 532l19 128h111q-2 21 -2 53q0 26 4 59h-132l19 128h131q56 238 194 376t359 138q140 0 275 -72v-199q-120 80 -258 80q-278 0 -360 -323h474l-19 -128h-473q-4 -33 -4 -59q0 -32 2 -53h462l-19 -128h-426q27 -164 122 -264q95 -99 242 -99q131 0 257 80v-186 q-107 -85 -283 -85q-237 0 -381 162q-143 162 -170 392h-144z" />
<glyph unicode="&#x2122;" horiz-adv-x="2048" d="M230 1352v120h668v-120h-266v-696h-136v696h-266zM990 656v816h202l195 -657l201 657h197v-816h-125v701l-211 -701h-123l-211 708v-708h-125z" />
<glyph unicode="&#x25fc;" horiz-adv-x="910" d="M0 0v910h910v-910h-910z" />
<glyph unicode="&#xfb01;" d="M21 752v160h144q0 498 389 498q160 0 246 -82q87 -82 91 -206h-182q-45 123 -165 123q-197 0 -197 -263v-70h208v-160h-208v-752h-182v752h-144zM709 0v912h182v-912h-182z" />
<glyph unicode="&#xfb02;" d="M15 752v160h144v71q0 201 97 314q98 113 236 113q86 0 121 -20v-167q-26 22 -80 22q-192 0 -192 -241v-92h208v-160h-208v-752h-182v752h-144zM703 0v1392h182v-1392h-182z" />
</font>
</defs>
</svg>
